<svg xmlns="http://www.w3.org/2000/svg" viewBox="0 0 32 32"><defs><style>.a{fill:#202020;}</style></defs><path class="a" d="M18.2,30.11c-5.32,0-7.54-2.77-11.33-9.08L4.93,17.81a2.87,2.87,0,0,1-.25-2.52,3,3,0,0,1,1.89-1.81,3.07,3.07,0,0,1,3.34,1l2.52,2.93a1,1,0,1,1-1.51,1.3l-2.56-3a1.06,1.06,0,0,0-1.17-.39,1,1,0,0,0-.63.6.89.89,0,0,0,.08.79L8.58,20c3.78,6.29,5.5,8.12,9.62,8.12s7.3-3.2,7.3-7.6V13.07a.85.85,0,0,0-.85-.85.86.86,0,0,0-.86.85v1.66a1,1,0,0,1-2,0V13.07a2.86,2.86,0,0,1,5.71,0v7.44A9.25,9.25,0,0,1,18.2,30.11Z"/><path class="a" d="M11.68,19.08a1,1,0,0,1-1-1V4.8a2.85,2.85,0,1,1,5.7,0v9.93a1,1,0,0,1-2,0V4.8a.85.85,0,1,0-1.7,0V18.08A1,1,0,0,1,11.68,19.08Z"/><path class="a" d="M19.09,15.73a1,1,0,0,1-1-1V9.56a.86.86,0,0,0-1.71,0v5.17a1,1,0,0,1-2,0V9.56a2.86,2.86,0,0,1,5.71,0v5.17A1,1,0,0,1,19.09,15.73Z"/><path class="a" d="M22.79,15.73a1,1,0,0,1-1-1V10.85a.85.85,0,0,0-1.7,0v3.88a1,1,0,0,1-2,0V10.85a2.85,2.85,0,1,1,5.7,0v3.88A1,1,0,0,1,22.79,15.73Z"/></svg>