<svg xmlns="http://www.w3.org/2000/svg" viewBox="0 0 32 32"><defs><style>.a{fill:#202020;}</style></defs><path class="a" d="M7.57,9.52a1,1,0,0,1-1-.7A6.76,6.76,0,1,1,19.72,7.77a1,1,0,0,1-1.14.84,1,1,0,0,1-.84-1.13,4.28,4.28,0,0,0,.06-.72,4.76,4.76,0,0,0-9.51,0,4.68,4.68,0,0,0,.23,1.45,1,1,0,0,1-.65,1.26A1,1,0,0,1,7.57,9.52Z"/><path class="a" d="M11.09,19.13a1,1,0,0,1-1-1V6.52a3,3,0,1,1,5.91,0v3.73a2.85,2.85,0,0,1,1-.16,3,3,0,0,1,2.55,1.45,2.9,2.9,0,0,1,1.37-.34,3,3,0,0,1,3,3v3a1,1,0,0,1-2,0v-3a1,1,0,1,0-1.92,0v2.57a1,1,0,1,1-2,0V13.05a1,1,0,0,0-1.92,0v3.26a1,1,0,0,1-2,0V6.52a1,1,0,1,0-1.91,0V18.13A1,1,0,0,1,11.09,19.13Z"/><path class="a" d="M18,32c-5.14,0-8.16-4.14-9-5.52-1.22-2-1.91-3.18-4.34-7.5a2.94,2.94,0,0,1,1-4,3.43,3.43,0,0,1,4.2.51l1.92,1.92a1,1,0,0,1,0,1.42,1,1,0,0,1-1.41,0L8.46,16.92A1.44,1.44,0,0,0,6.7,16.7,1,1,0,0,0,6.36,18c2.42,4.3,3.1,5.5,4.3,7.43.79,1.26,3.72,5.3,8.67,4.47,4-.68,6.43-3.85,6.43-8.49,0-1.47,0-6.13,0-6.13a1,1,0,0,0-1.92,0,1,1,0,0,1-2,0,3,3,0,0,1,5.92,0s0,4.67,0,6.13c0,5.62-3.1,9.62-8.09,10.46A9.93,9.93,0,0,1,18,32Z"/></svg>