<svg xmlns="http://www.w3.org/2000/svg" viewBox="0 0 32 32"><defs><style>.a{fill:#202020;}</style></defs><path class="a" d="M11.08,17.35a1,1,0,0,1-1-1V4.74a3,3,0,0,1,5.92,0V8.47a2.76,2.76,0,0,1,1-.16A2.94,2.94,0,0,1,19.5,9.76a2.91,2.91,0,0,1,1.38-.34,3,3,0,0,1,2.95,3v3a1,1,0,0,1-2,0v-3a1,1,0,1,0-1.91,0V15a1,1,0,1,1-2,0V11.27a1,1,0,0,0-1.92,0v3.26a1,1,0,1,1-2,0V4.74a1,1,0,1,0-1.92,0V16.35A1,1,0,0,1,11.08,17.35Z"/><path class="a" d="M18,30.22c-5.14,0-8.16-4.14-9-5.52-1.23-2-1.92-3.18-4.35-7.5a2.94,2.94,0,0,1,1.06-4,3.43,3.43,0,0,1,4.2.51l1.92,1.92a1,1,0,1,1-1.42,1.42L8.45,15.14a1.42,1.42,0,0,0-1.75-.22,1,1,0,0,0-.35,1.3c2.42,4.29,3.1,5.5,4.3,7.42.79,1.26,3.73,5.3,8.68,4.47,4-.68,6.42-3.85,6.42-8.49,0-1.47,0-6.13,0-6.13a1,1,0,0,0-1.92,0,1,1,0,1,1-2,0,3,3,0,0,1,5.92,0s0,4.67,0,6.13c0,5.62-3.1,9.62-8.09,10.46A9.85,9.85,0,0,1,18,30.22Z"/></svg>