<svg xmlns="http://www.w3.org/2000/svg" viewBox="0 0 32 32"><defs><style>.a{fill:#202020;}</style></defs><path class="a" d="M11.68,19.08a1,1,0,0,1-1-1V10.85a2.85,2.85,0,0,1,5.7,0v3.88a1,1,0,0,1-2,0V10.85a.85.85,0,1,0-1.7,0v7.23A1,1,0,0,1,11.68,19.08Z"/><path class="a" d="M19.09,15.73a1,1,0,0,1-1-1V9.56a.86.86,0,0,0-1.71,0v5.17a1,1,0,0,1-2,0V9.56a2.86,2.86,0,0,1,5.71,0v5.17A1,1,0,0,1,19.09,15.73Z"/><path class="a" d="M22.79,15.73a1,1,0,0,1-1-1V10.85a.85.85,0,0,0-1.7,0v3.88a1,1,0,0,1-2,0V10.85a2.85,2.85,0,1,1,5.7,0v3.88A1,1,0,0,1,22.79,15.73Z"/><path class="a" d="M18.2,30.11c-4.8,0-7.12-2.34-10.2-7.25a6.64,6.64,0,0,1-1-3.55v-3.7a2.86,2.86,0,0,1,3.32-2.82,2.93,2.93,0,0,1,2.39,2.91v2.38a1,1,0,0,1-2,0V15.7a.92.92,0,0,0-.71-.93.82.82,0,0,0-.7.19.85.85,0,0,0-.3.65v3.7a4.68,4.68,0,0,0,.72,2.49c3.11,4.95,4.94,6.31,8.51,6.31,4.23,0,7.3-3.2,7.3-7.6V13.16a.92.92,0,0,0-.7-.93.9.9,0,0,0-.71.19.85.85,0,0,0-.3.65v1.66a1,1,0,0,1-2,0V13.07a2.86,2.86,0,0,1,1-2.17,2.85,2.85,0,0,1,4.71,2.26v7.35A9.25,9.25,0,0,1,18.2,30.11Z"/></svg>