<svg xmlns="http://www.w3.org/2000/svg" viewBox="0 0 32 32"><defs><style>.a{fill:none;stroke:#202020;stroke-linecap:round;stroke-linejoin:round;stroke-width:2px;}</style></defs><path class="a" d="M22.79,14.73V9A1.86,1.86,0,1,1,26.5,9V20.51a8.22,8.22,0,0,1-8.3,8.6c-4.77,0-6.77-2.42-10.47-8.6L5.79,17.29a1.94,1.94,0,0,1,1.09-2.86,2.05,2.05,0,0,1,2.24.69l2.56,3"/><path class="a" d="M11.68,18.08V4.8a1.85,1.85,0,0,1,3.7,0v9.93"/><path class="a" d="M15.38,14.73V3.51a1.86,1.86,0,0,1,3.71,0V14.73"/><path class="a" d="M19.09,14.73V4.8a1.85,1.85,0,1,1,3.7,0v9.93"/></svg>