<svg xmlns="http://www.w3.org/2000/svg" viewBox="0 0 32 32"><defs><style>.a{fill:none;stroke:#202020;stroke-linecap:round;stroke-linejoin:round;stroke-width:2px;}</style></defs><path class="a" d="M22.79,16.58V14.93a1.86,1.86,0,1,1,3.71,0v7.44A8.21,8.21,0,0,1,18.2,31c-4.77,0-6.77-2.42-10.47-8.59L5.79,19.15a1.94,1.94,0,0,1,1.09-2.86A2,2,0,0,1,9.12,17l2.56,3"/><path class="a" d="M11.68,19.94V6.66a1.85,1.85,0,0,1,3.7,0v9.92"/><path class="a" d="M15.38,16.58V11.42a1.86,1.86,0,1,1,3.71,0v5.16"/><path class="a" d="M19.09,16.58V12.71a1.85,1.85,0,1,1,3.7,0v3.87"/><path class="a" d="M8.27,8.23A5.51,5.51,0,1,1,19,6.55"/></svg>