<svg xmlns="http://www.w3.org/2000/svg" viewBox="0 0 32 32"><defs><style>.a{fill:none;stroke:#202020;stroke-linecap:round;stroke-linejoin:round;stroke-width:2px;}</style></defs><path class="a" d="M11.68,18.08V10.85a1.85,1.85,0,0,1,3.7,0v3.88"/><path class="a" d="M15.38,14.73V9.56a1.86,1.86,0,0,1,3.71,0v5.17"/><path class="a" d="M19.09,14.73V10.85a1.85,1.85,0,1,1,3.7,0v3.88"/><path class="a" d="M11.68,18.08V16.22a6.82,6.82,0,0,0-1.55-.44A1.86,1.86,0,0,0,8,17.61v1.7a5.65,5.65,0,0,0,.87,3c3,4.83,5.09,6.78,9.36,6.78a8.22,8.22,0,0,0,8.3-8.6V13.16A1.92,1.92,0,0,0,25,11.24a1.86,1.86,0,0,0-2.16,1.83v1.66"/></svg>