<svg xmlns="http://www.w3.org/2000/svg" viewBox="0 0 32 32"><defs><style>.a{fill:#202020;}</style></defs><path class="a" d="M18.2,32c-5.32,0-7.54-2.77-11.33-9.08L4.93,19.66a2.87,2.87,0,0,1-.25-2.52,3,3,0,0,1,1.89-1.8,3.05,3.05,0,0,1,3.34,1l2.52,2.93a1,1,0,0,1-1.51,1.31l-2.56-3a1.05,1.05,0,0,0-1.17-.38,1,1,0,0,0-.63.59.89.89,0,0,0,.08.79l1.94,3.23C12.36,28.13,14.08,30,18.2,30s7.3-3.19,7.3-7.59V14.93a.86.86,0,1,0-1.71,0v1.65a1,1,0,0,1-2,0V14.93a2.86,2.86,0,1,1,5.71,0v7.44A9.24,9.24,0,0,1,18.2,32Z"/><path class="a" d="M11.68,20.94a1,1,0,0,1-1-1V6.66a2.85,2.85,0,0,1,5.7,0v9.92a1,1,0,0,1-2,0V6.66a.85.85,0,0,0-1.7,0V19.94A1,1,0,0,1,11.68,20.94Z"/><path class="a" d="M19.09,17.58a1,1,0,0,1-1-1V11.42a.86.86,0,1,0-1.71,0v5.16a1,1,0,0,1-2,0V11.42a2.86,2.86,0,1,1,5.71,0v5.16A1,1,0,0,1,19.09,17.58Z"/><path class="a" d="M22.79,17.58a1,1,0,0,1-1-1V12.71a.85.85,0,0,0-1.7,0v3.87a1,1,0,0,1-2,0V12.71a2.85,2.85,0,1,1,5.7,0v3.87A1,1,0,0,1,22.79,17.58Z"/><path class="a" d="M8.27,9.24a1,1,0,0,1-1-.7,6.67,6.67,0,0,1-.31-2,6.52,6.52,0,0,1,13,0,1,1,0,1,1-2,0,4.52,4.52,0,0,0-9,0,4.58,4.58,0,0,0,.22,1.38,1,1,0,0,1-.65,1.26A1,1,0,0,1,8.27,9.24Z"/></svg>